<?xml version="1.0" encoding="UTF-8"?>
<svg xmlns="http://www.w3.org/2000/svg" xmlns:xlink="http://www.w3.org/1999/xlink" width="48pt" height="48pt" viewBox="0 0 48 48" version="1.1">
<g id="surface1809">
<path style=" stroke:none;fill-rule:nonzero;fill:rgb(19.215686%,15.686275%,51.372549%);fill-opacity:1;" d="M 24 15 C 15.164062 15 8 17.015625 8 19.5 C 8 21.984375 15.164062 24 24 24 C 32.835938 24 40 21.984375 40 19.5 C 40 17.015625 32.835938 15 24 15 Z M 24 15 "/>
<path style=" stroke:none;fill-rule:nonzero;fill:rgb(19.215686%,15.686275%,51.372549%);fill-opacity:1;" d="M 24 17 C 15.164062 17 8 19.015625 8 21.5 C 8 23.984375 15.164062 26 24 26 C 32.835938 26 40 23.984375 40 21.5 C 40 19.015625 32.835938 17 24 17 Z M 24 17 "/>
<path style=" stroke:none;fill-rule:nonzero;fill:rgb(47.058824%,56.470588%,61.176471%);fill-opacity:1;" d="M 21.460938 3.132812 L 19.234375 3.832031 C 17.390625 4.414062 16.367188 6.378906 16.945312 8.222656 L 20.160156 14.550781 C 20.738281 16.394531 22.703125 17.417969 24.550781 16.835938 C 26.394531 16.257812 27.417969 14.292969 26.839844 12.449219 L 25.851562 5.421875 C 25.269531 3.578125 23.304688 2.554688 21.460938 3.132812 Z M 23.949219 14.929688 C 22.894531 15.261719 21.773438 14.675781 21.441406 13.621094 C 21.109375 12.570312 21.695312 11.445312 22.746094 11.113281 C 23.800781 10.78125 24.925781 11.367188 25.257812 12.421875 C 25.585938 13.476562 25.003906 14.597656 23.949219 14.929688 Z M 23.101562 8.90625 L 21.195312 9.507812 C 20.140625 9.839844 19.015625 9.253906 18.6875 8.199219 C 18.355469 7.144531 18.941406 6.023438 19.992188 5.691406 L 21.898438 5.089844 C 22.953125 4.757812 24.078125 5.34375 24.410156 6.398438 C 24.742188 7.453125 24.15625 8.574219 23.101562 8.90625 Z M 23.101562 8.90625 "/>
<path style=" stroke:none;fill-rule:nonzero;fill:rgb(47.058824%,56.470588%,61.176471%);fill-opacity:1;" d="M 34.96875 18.226562 C 32.105469 17.46875 28.25 17 24 17 C 16.386719 17 10.03125 18.496094 8.414062 20.5 C 9.671875 22.058594 13.800781 23.304688 19.148438 23.785156 Z M 34.96875 18.226562 "/>
<path style=" stroke:none;fill-rule:nonzero;fill:rgb(93.333333%,93.333333%,93.333333%);fill-opacity:1;" d="M 17.929688 24.257812 L 34.90625 18.25 C 34.839844 17.960938 34.757812 17.675781 34.652344 17.390625 C 33.066406 13.015625 27.875 10.882812 23.207031 12.574219 C 18.542969 14.261719 16.046875 19.175781 17.632812 23.550781 C 17.71875 23.792969 17.820312 24.027344 17.929688 24.257812 Z M 17.929688 24.257812 "/>
<path style=" stroke:none;fill-rule:nonzero;fill:rgb(93.333333%,93.333333%,93.333333%);fill-opacity:1;" d="M 24 24 C 15.164062 24 8 21.984375 8 19.5 L 8 40 C 8 40 8.003906 40.449219 8.929688 40.996094 C 11.125 42.746094 17.03125 44 24 44 C 30.96875 44 36.875 42.746094 39.070312 40.996094 C 39.996094 40.449219 40 40 40 40 L 40 19.5 C 40 21.984375 32.835938 24 24 24 Z M 24 24 "/>
<path style=" stroke:none;fill-rule:nonzero;fill:rgb(47.058824%,56.470588%,61.176471%);fill-opacity:1;" d="M 24 37 C 15.164062 37 8 34.984375 8 32.5 L 8 34.5 C 8 36.984375 15.164062 39 24 39 C 32.835938 39 40 36.984375 40 34.5 L 40 32.5 C 40 34.984375 32.835938 37 24 37 Z M 24 37 "/>
<path style=" stroke:none;fill-rule:nonzero;fill:rgb(47.058824%,56.470588%,61.176471%);fill-opacity:1;" d="M 24 33 C 15.164062 33 8 30.984375 8 28.5 L 8 30.5 C 8 32.984375 15.164062 35 24 35 C 32.835938 35 40 32.984375 40 30.5 L 40 28.5 C 40 30.984375 32.835938 33 24 33 Z M 24 33 "/>
<path style=" stroke:none;fill-rule:nonzero;fill:rgb(47.058824%,56.470588%,61.176471%);fill-opacity:1;" d="M 24 29 C 15.164062 29 8 26.984375 8 24.5 L 8 26.5 C 8 28.984375 15.164062 31 24 31 C 32.835938 31 40 28.984375 40 26.5 L 40 24.5 C 40 26.984375 32.835938 29 24 29 Z M 24 29 "/>
</g>
</svg>
