<?xml version="1.0" encoding="UTF-8"?>
<svg xmlns="http://www.w3.org/2000/svg" xmlns:xlink="http://www.w3.org/1999/xlink" width="48pt" height="48pt" viewBox="0 0 48 48" version="1.1">
<g id="surface314">
<path style=" stroke:none;fill-rule:nonzero;fill:rgb(93.333333%,93.333333%,93.333333%);fill-opacity:1;" d="M 34 44 L 14 44 C 11.789062 44 10 42.210938 10 40 L 10 20.527344 C 10 19.515625 10.152344 18.507812 10.453125 17.542969 L 13 13 L 13 8 L 35 8 L 35 13 L 37.578125 17.59375 C 37.859375 18.527344 38 19.492188 38 20.46875 L 38 40 C 38 42.210938 36.210938 44 34 44 Z M 34 44 "/>
<path style=" stroke:none;fill-rule:nonzero;fill:rgb(19.215686%,15.686275%,51.372549%);fill-opacity:1;" d="M 34 45 L 14 45 C 11.242188 45 9 42.757812 9 40 L 9 20.527344 C 9 19.410156 9.167969 18.304688 9.5 17.242188 L 9.582031 17.054688 L 12 12.738281 L 12 7 L 36 7 L 36 12.738281 L 38.535156 17.304688 C 38.84375 18.332031 39 19.394531 39 20.464844 L 39 40 C 39 42.757812 36.757812 45 34 45 Z M 11.378906 17.9375 C 11.128906 18.777344 11 19.644531 11 20.527344 L 11 40 C 11 41.652344 12.347656 43 14 43 C 14 43 21 41 24 41 C 27 41 34 43 34 43 C 35.652344 43 37 41.652344 37 40 L 37 20.46875 C 37 19.628906 36.882812 18.792969 36.648438 17.984375 L 34 13.261719 L 34 9 L 14 9 L 14 13.261719 Z M 11.378906 17.9375 "/>
<path style=" stroke:none;fill-rule:nonzero;fill:rgb(47.058824%,56.470588%,61.176471%);fill-opacity:1;" d="M 38 11 L 10 11 L 10 6.746094 C 10 5.78125 10.78125 5 11.746094 5 L 36.253906 5 C 37.21875 5 38 5.78125 38 6.746094 Z M 38 11 "/>
<path style=" stroke:none;fill-rule:nonzero;fill:rgb(80%,80%,80%);fill-opacity:1;" d="M 14 11 L 34 11 L 34 13 L 14 13 Z M 14 11 "/>
</g>
</svg>
