<?xml version="1.0" encoding="UTF-8"?>
<svg xmlns="http://www.w3.org/2000/svg" xmlns:xlink="http://www.w3.org/1999/xlink" width="48pt" height="48pt" viewBox="0 0 48 48" version="1.1">
<g id="surface2434">
<path style=" stroke:none;fill-rule:nonzero;fill:rgb(19.215686%,15.686275%,51.372549%);fill-opacity:1;" d="M 31 10.101562 L 17 10.101562 L 17 6.101562 C 17 5 17.898438 4.101562 19 4.101562 L 29 4.101562 C 30.101562 4.101562 31 5 31 6.101562 Z M 31 10.101562 "/>
<path style=" stroke:none;fill-rule:nonzero;fill:rgb(93.333333%,93.333333%,93.333333%);fill-opacity:1;" d="M 34 35.101562 C 34 34 34.898438 33.101562 36 33.101562 L 36 23.101562 C 34.898438 23.101562 34 22.199219 34 21.101562 C 34 20 34.898438 19.101562 36 19.101562 L 36 17.5 C 36 16.601562 35.699219 15.699219 35.101562 14.898438 L 31 10.101562 L 17 10.101562 L 12.898438 15 C 12.300781 15.699219 12 16.601562 12 17.601562 L 12 19.199219 C 13.101562 19.199219 14 20.101562 14 21.199219 C 14 22.300781 13.101562 23.199219 12 23.199219 L 12 33.199219 C 13.101562 33.199219 14 34.101562 14 35.199219 C 14 36.300781 13.101562 37.199219 12 37.199219 L 12 40.199219 C 12 42.398438 13.800781 44.199219 16 44.199219 L 32 44.199219 C 34.199219 44.199219 36 42.398438 36 40.199219 L 36 37.199219 C 34.898438 37.101562 34 36.199219 34 35.101562 Z M 34 35.101562 "/>
<path style=" stroke:none;fill-rule:nonzero;fill:rgb(47.058824%,56.470588%,61.176471%);fill-opacity:1;" d="M 36 19.101562 L 12 19.101562 C 13.101562 19.101562 14 20 14 21.101562 C 14 22.199219 13.101562 23.101562 12 23.101562 L 36 23.101562 C 34.898438 23.101562 34 22.199219 34 21.101562 C 34 20 34.898438 19.101562 36 19.101562 Z M 36 33.101562 L 12 33.101562 C 13.101562 33.101562 14 34 14 35.101562 C 14 36.199219 13.101562 37.101562 12 37.101562 L 36 37.101562 C 34.898438 37.101562 34 36.199219 34 35.101562 C 34 34 34.898438 33.101562 36 33.101562 Z M 36 33.101562 "/>
</g>
</svg>
