<svg xmlns="http://www.w3.org/2000/svg" xmlns:xlink="http://www.w3.org/1999/xlink" width="1092" height="818" viewBox="0 0 1092 818">
  <defs>
    <clipPath id="clip-path">
      <circle id="Ellipse_1" data-name="Ellipse 1" cx="350" cy="350" r="350" transform="translate(1088 190)" fill="#fff" stroke="#707070" stroke-width="1"/>
    </clipPath>
    <clipPath id="clip-path-2">
      <rect id="Rectangle_2" data-name="Rectangle 2" width="140" height="140" transform="translate(960 767)" fill="#fff" stroke="#707070" stroke-width="1"/>
    </clipPath>
    <clipPath id="clip-path-3">
      <rect id="Rectangle_3" data-name="Rectangle 3" width="300" height="160" transform="translate(913 139)" fill="#fff"/>
    </clipPath>
    <clipPath id="clip-path-5">
      <rect id="Rectangle_5" data-name="Rectangle 5" width="140" height="140" transform="translate(850 600)" fill="#fff"/>
    </clipPath>
    <clipPath id="clip-path-6">
      <rect id="Rectangle_6" data-name="Rectangle 6" width="140" height="140" transform="translate(1696 697)" fill="#fff"/>
    </clipPath>
    <clipPath id="clip-path-7">
      <rect id="Rectangle_7" data-name="Rectangle 7" width="140" height="140" transform="translate(908 784)" fill="#fff"/>
    </clipPath>
    <clipPath id="clip-path-8">
      <rect id="Rectangle_8" data-name="Rectangle 8" width="220" height="117" transform="translate(912.731 139.19)" fill="#fff"/>
    </clipPath>
  </defs>
  <g id="Group_12" data-name="Group 12" transform="translate(-828 -164)">
    <g id="Mask_Group_1" data-name="Mask Group 1" transform="translate(29 72)" clip-path="url(#clip-path)">
      <g id="surface4316" transform="translate(1038 140)">
        <path id="Path_1" data-name="Path 1" d="M400,66.667C215.885,66.667,66.667,215.885,66.667,400S215.885,733.333,400,733.333,733.333,584.115,733.333,400,584.115,66.667,400,66.667Zm0,0" fill="#1565c0"/>
        <path id="Path_2" data-name="Path 2" d="M538.347,241.667l-33.333,25A18.755,18.755,0,0,0,500,285.027l14.973,18.293c1.693,6.707-1.627,15.04-8.333,18.36-8.333,5.013-28.32,14.973-28.32,19.987,0,11.653,8.333,39.973,15.04,39.973,51.627,0,19.987-23.307,56.64-46.613,21.68-13.347,56.64-20.053,64.973-20.053h33.333V548.307H531.64s20.053,31.707,38.347,66.667c8.333,16.667,28.32,50,28.32,50C683.333,600,731.64,501.693,731.64,398.307c0-106.64-51.627-203.32-129.947-263.281L553.32,219.987C550,230.013,544.987,236.653,538.347,241.667Zm-303.32,175C250,416.667,250,403.32,250,383.333s-3.32-50,50-50c21.68,0,50,0,50-33.333V216.667c0-5.013-1.693-26.693-35.027-26.693-28.32,0-50-4.947-50-25,0-14.974,11.72-50,35.027-81.641C176.693,121.68,86.654,228.32,69.987,358.333l-3.32,25H200C225,383.333,219.987,416.667,235.027,416.667Zm148.307,100c-19.987,0-33.333,0-56.64-28.32-10.027-10.027-25-21.68-36.72-21.68H250l-16.667,16.667L266.667,600V705.013c16.667,6.64,33.333,13.347,50,18.293,6.64-51.627,46.68-113.28,50-123.307,3.32-6.64,16.667-38.347,16.667-38.347Zm0,0" fill="#7cba27"/>
        <path id="Path_3" data-name="Path 3" d="M616.667,316.667s16.667,16.667,16.667,66.667C633.333,400,600,416.667,550,416.667c-83.333,0-83.333,48.307-83.333,66.667,0,60.027,66.667,66.667,66.667,66.667S600,550,650,616.667l1.693,1.693c50-58.333,81.64-135.027,81.64-218.36A338.123,338.123,0,0,0,693.36,241.667l-5.013-8.333h-5.013C633.333,233.333,638.347,300,616.667,316.667ZM100,400c10.026,19.987,35.026,38.347,55.013,53.32,13.347,10.027,61.654,30.013,61.654,63.347,0,56.64,33.333,116.667,33.333,150V696.68l33.333,14.973v-28.32c0-50,56.64-83.333,83.333-83.333,0,0,33.333-3.32,33.333-58.333,0-6.64-6.64-25-16.667-25,0,0-8.333,33.333-71.68,33.333-33.333,0-63.347-18.36-63.347-83.333h-31.64c-10.027,0-18.36-13.347-18.36-21.68s-1.627-11.653-14.973-11.653c-10.027,0-16.667-5.013-16.667-13.347V403.32c0-9.96,8.333-21.68,33.333-21.68,0-29.947-33.333-50-33.333-75,0-23.307-16.667-58.333-50-75l-5.013-1.627s-34.961,59.96-41.667,125Zm0,0" fill="#7cba27"/>
        <path id="Path_4" data-name="Path 4" d="M400,750C206.64,750,50,593.36,50,400S206.64,50,400,50,750,206.64,750,400,593.36,750,400,750Zm0-650c-164.973,0-300,135.027-300,300S235.027,700,400,700,700,564.973,700,400,564.973,100,400,100Zm0,0" fill="#bbdefb"/>
      </g>
    </g>
    <g id="Mask_Group_2" data-name="Mask Group 2" transform="translate(774.728 -803.063) rotate(15)" clip-path="url(#clip-path-2)">
      <g id="surface505" transform="translate(960 782.499)">
        <path id="Path_5" data-name="Path 5" d="M135.048,111.182H88.381V42.667h35.2a6.628,6.628,0,0,1,6.315,4.258l11.823,33.114v24.915A6.455,6.455,0,0,1,135.048,111.182Zm0,0" transform="translate(-1.714 -17.752)" fill="#7cba27"/>
        <path id="Path_6" data-name="Path 6" d="M95.81,111.65h-80a6.455,6.455,0,0,1-6.667-6.229V77.392L40.2,26.5a10.079,10.079,0,0,1,8.945-5.17h40a6.455,6.455,0,0,1,6.667,6.229Zm0,0" transform="translate(-9.143 -18.219)" fill="#578233"/>
        <path id="Path_7" data-name="Path 7" d="M127.238,76.791H103.9a3.236,3.236,0,0,1-3.333-3.114v-21.8a3.236,3.236,0,0,1,3.333-3.114H121.5a3.3,3.3,0,0,1,3.164,2.129L130.4,66.974a2.785,2.785,0,0,1,.169.973v5.73A3.236,3.236,0,0,1,127.238,76.791Zm0,0" transform="translate(-0.571 -17.618)" fill="#333"/>
        <path id="Path_8" data-name="Path 8" d="M66.286,18.286H79.619v71.63H66.286Zm-26.667,0H52.952v71.63H39.619Zm0,0" transform="translate(-6.286 -18.286)" fill="#7cba27"/>
        <path id="Path_9" data-name="Path 9" d="M21.333,110.181H94.667v-21.8H38Zm0,0" transform="translate(-8 -16.751)" fill="#78909c"/>
        <path id="Path_10" data-name="Path 10" d="M121.048,94.476c-9.206,0-16.667,6.971-16.667,15.572s7.461,15.572,16.667,15.572,16.667-6.971,16.667-15.572S130.253,94.476,121.048,94.476Zm-80,0c-9.206,0-16.667,6.971-16.667,15.572s7.461,15.572,16.667,15.572,16.667-6.971,16.667-15.572S50.253,94.476,41.048,94.476Zm0,0" transform="translate(-7.714 -16.617)" fill="#333"/>
        <path id="Path_11" data-name="Path 11" d="M120.19,103.619a6.243,6.243,0,1,0,6.667,6.229A6.455,6.455,0,0,0,120.19,103.619Zm-80,0a6.243,6.243,0,1,0,0,12.457,6.243,6.243,0,1,0,0-12.457Zm0,0" transform="translate(-6.857 -16.417)" fill="#78909c"/>
      </g>
    </g>
    <g id="Mask_Group_3" data-name="Mask Group 3" transform="translate(2833 463) rotate(180)" clip-path="url(#clip-path-3)">
      <g id="surface2758" transform="translate(935 91)">
        <path id="Path_12" data-name="Path 12" d="M98.667,48A45.333,45.333,0,1,0,144,93.333,45.327,45.327,0,0,0,98.667,48Zm0,0" fill="#bbdefb"/>
        <path id="Path_13" data-name="Path 13" d="M101.333,133.333a37.333,37.333,0,1,0,37.333,37.333A37.325,37.325,0,0,0,101.333,133.333Zm0,0" fill="#bbdefb"/>
        <path id="Path_14" data-name="Path 14" d="M58.667,101.333A37.333,37.333,0,1,0,96,138.667,37.325,37.325,0,0,0,58.667,101.333Zm144,0a32,32,0,1,0,32,32A32.008,32.008,0,0,0,202.667,101.333Zm0,0" fill="#bbdefb"/>
        <path id="Path_15" data-name="Path 15" d="M160,128a32,32,0,1,0,32,32A32.008,32.008,0,0,0,160,128Zm0,0" fill="#bbdefb"/>
        <path id="Path_16" data-name="Path 16" d="M162.667,64a34.667,34.667,0,1,0,34.667,34.667A34.667,34.667,0,0,0,162.667,64Zm0,0" fill="#bbdefb"/>
        <path id="Path_17" data-name="Path 17" d="M122.667,90.667A37.333,37.333,0,1,0,160,128,37.325,37.325,0,0,0,122.667,90.667Zm0,0" fill="#bbdefb"/>
      </g>
    </g>
    <g id="Mask_Group_4" data-name="Mask Group 4" transform="translate(2041 610) rotate(180)" clip-path="url(#clip-path-3)">
      <g id="surface2758-2" data-name="surface2758" transform="translate(935 91)">
        <path id="Path_18" data-name="Path 18" d="M98.667,48A45.333,45.333,0,1,0,144,93.333,45.327,45.327,0,0,0,98.667,48Zm0,0" fill="#bbdefb"/>
        <path id="Path_19" data-name="Path 19" d="M101.333,133.333a37.333,37.333,0,1,0,37.333,37.333A37.325,37.325,0,0,0,101.333,133.333Zm0,0" fill="#bbdefb"/>
        <path id="Path_20" data-name="Path 20" d="M58.667,101.333A37.333,37.333,0,1,0,96,138.667,37.325,37.325,0,0,0,58.667,101.333Zm144,0a32,32,0,1,0,32,32A32.008,32.008,0,0,0,202.667,101.333Zm0,0" fill="#bbdefb"/>
        <path id="Path_21" data-name="Path 21" d="M160,128a32,32,0,1,0,32,32A32.008,32.008,0,0,0,160,128Zm0,0" fill="#bbdefb"/>
        <path id="Path_22" data-name="Path 22" d="M162.667,64a34.667,34.667,0,1,0,34.667,34.667A34.667,34.667,0,0,0,162.667,64Zm0,0" fill="#bbdefb"/>
        <path id="Path_23" data-name="Path 23" d="M122.667,90.667A37.333,37.333,0,1,0,160,128,37.325,37.325,0,0,0,122.667,90.667Zm0,0" fill="#bbdefb"/>
      </g>
    </g>
    <g id="Group_1" data-name="Group 1" transform="matrix(0.766, -0.643, 0.643, 0.766, 80.571, 471.114)">
      <g id="Mask_Group_5" data-name="Mask Group 5" clip-path="url(#clip-path-5)">
        <g id="surface3689" transform="translate(831.579 577.895)">
          <path id="Path_24" data-name="Path 24" d="M112.743,162.105H64.1a14.7,14.7,0,0,1-14.737-12.52L33.158,40.526H143.684L127.105,149.585A14.608,14.608,0,0,1,112.743,162.105Zm0,0" fill="#578233"/>
          <path id="Path_25" data-name="Path 25" d="M103.158,22.105H73.684L51.579,44.211h73.684Zm0,0" fill="#ffed01"/>
          <path id="Path_26" data-name="Path 26" d="M36.842,29.474H140a7.383,7.383,0,0,1,7.368,7.368v7.368H29.474V36.842A7.383,7.383,0,0,1,36.842,29.474Zm0,0" fill="#78909c"/>
        </g>
      </g>
      <g id="surface1805" transform="translate(896.014 644.999)">
        <path id="Path_27" data-name="Path 27" d="M42.535,23.789c1.609,3.586-1.367,7.133-2.766,7.16H36.285L31.051,21.66,38.77,17.2l3.7,6.41ZM24.1,8.277,22.152,6.016H20.059A5.879,5.879,0,0,0,15.1,8.32L15,8.473l-3.7,6.41,7.719,4.469,5.6-9.152ZM15.4,39.9c-3.918-.395-5.633-4.406-4.965-5.652L12.016,31H23.578L23,39.934H15.586Zm0,0" fill="#fff"/>
        <path id="Path_28" data-name="Path 28" d="M39.469,30.895c1.063-.031,1.785-.664,2.688-1.969l-5.883,9.9a1.446,1.446,0,0,1-1.609,1.035h-5.2l-.031,3.16-4.375-7.6,4.406-7.684v3.156ZM22.664,7.2A2.417,2.417,0,0,0,20.3,6.016H31.113a1.485,1.485,0,0,1,1.73.879l2.582,4.5,2.73-1.578-4.375,7.625-8.836.031,2.7-1.578Zm-12,26.586c-.512.914-.363,1.785.266,3.047L5.375,27.039a1.521,1.521,0,0,1-.094-1.918l2.613-4.492-2.73-1.613h8.781l4.465,7.656L15.676,25.1Zm0,0" fill="#fff"/>
      </g>
    </g>
    <g id="Mask_Group_6" data-name="Mask Group 6" transform="translate(390.609 -743.482) rotate(25)" clip-path="url(#clip-path-6)">
      <g id="surface5582" transform="translate(1682 679.5)">
        <path id="Path_29" data-name="Path 29" d="M19.947,116.553l7,11.894L91,99.75,77,75.25Zm0,0" fill="#ecf0f1"/>
        <path id="Path_30" data-name="Path 30" d="M141.053,128.447l7-11.894L91,75.25,77,99.75ZM63,143.5a7.013,7.013,0,0,0-7,7v7h56v-7a7.013,7.013,0,0,0-7-7Zm0,0" fill="#ecf0f1"/>
        <path id="Path_31" data-name="Path 31" d="M91,17.5H77l-7,70H98Zm0,0" fill="#ecf0f1"/>
        <path id="Path_32" data-name="Path 32" d="M84,17.5H77L70.7,79.8,84,87.5Zm-60.553,105,3.5,5.947L84,102.894V87.5Zm121.106,0,3.5-5.947L97.3,79.8,84,87.5Zm0,0" fill="#ecf0f1"/>
        <path id="Path_33" data-name="Path 33" d="M84,80.5a7,7,0,1,0,7,7A7,7,0,0,0,84,80.5Zm0,22.394-7,3.158V143.5H91V106.053Zm0,0" fill="#78909c"/>
      </g>
    </g>
    <g id="Mask_Group_7" data-name="Mask Group 7" transform="translate(380 -96)" clip-path="url(#clip-path-7)">
      <g id="surface6668" transform="translate(908 784)">
        <path id="Path_34" data-name="Path 34" d="M61.25,81.667c-3.224,0-5.833,1.31-5.833,2.917S58.026,87.5,61.25,87.5s5.833-1.31,5.833-2.917S64.474,81.667,61.25,81.667Zm0,0" fill="#578233"/>
        <path id="Path_35" data-name="Path 35" d="M53.958,75.833c-5.64,0-10.208,1.96-10.208,4.375s4.569,4.375,10.208,4.375,10.208-1.96,10.208-4.375S59.6,75.833,53.958,75.833Zm0,0" fill="#578233"/>
        <path id="Path_36" data-name="Path 36" d="M81.667,40.833c-9.661,0-17.5,2.609-17.5,5.833s7.839,5.833,17.5,5.833,17.5-2.609,17.5-5.833S91.328,40.833,81.667,40.833Zm39.375,5.833c-7.246,0-13.125,1.96-13.125,4.375s5.879,4.375,13.125,4.375,13.125-1.96,13.125-4.375S128.288,46.667,121.042,46.667Zm0,0" fill="#578233"/>
        <path id="Path_37" data-name="Path 37" d="M48.125,37.917c-15.3,0-27.708,3.919-27.708,8.75s12.407,8.75,27.708,8.75,27.708-3.919,27.708-8.75S63.426,37.917,48.125,37.917Zm0,0" fill="#578233"/>
        <path id="Path_38" data-name="Path 38" d="M122.5,58.333c-3.224,0-5.833,1.31-5.833,2.917s2.609,2.917,5.833,2.917,5.833-1.31,5.833-2.917S125.724,58.333,122.5,58.333Zm0,0" fill="#578233"/>
        <path id="Path_39" data-name="Path 39" d="M75.833,119.583V87.5H64.167v32.083c0,2.917-5.833,5.833-5.833,5.833H81.667S75.833,122.5,75.833,119.583Zm0,0" fill="#bf360c"/>
        <path id="Path_40" data-name="Path 40" d="M73.213,98.87A2.92,2.92,0,0,1,70.3,95.954,16.518,16.518,0,0,1,74.079,84.88,32.928,32.928,0,0,1,77,81.667a12.6,12.6,0,0,0,2.632-2.917c.581-1.162,1.162-2.336,2.039-3.794.581-1.162,1.162-2.336,1.755-3.794a18.406,18.406,0,0,1,6.7-6.7,18.765,18.765,0,0,1,5.252-1.755l14.3-4.079c2.62-.877,5.537-1.458,7.873-3.213,1.458-.877,2.62-4.671,2.62-7.873a2.917,2.917,0,1,1,5.833,0c0,3.5-1.162,9.912-4.956,12.544a34.224,34.224,0,0,1-9.627,4.079L97.127,68.245a17.335,17.335,0,0,0-4.09,1.458,10.627,10.627,0,0,0-4.375,4.375C88.081,74.956,87.8,76.13,87.2,77a35.64,35.64,0,0,1-2.324,4.671,46.054,46.054,0,0,1-3.509,3.794,19.208,19.208,0,0,0-2.324,2.62,13.69,13.69,0,0,0-2.336,7.588C76.13,97.708,74.671,98.87,73.213,98.87Zm-6.13-3.5a2.751,2.751,0,0,1-2.917-2.917C64.167,80.208,51.338,70,40.833,70c-16.623,0-26.25-7-26.25-18.958A2.751,2.751,0,0,1,17.5,48.125a2.751,2.751,0,0,1,2.917,2.917c0,10.789,11.086,13.125,20.417,13.125C53.958,64.167,70,76.711,70,92.456A2.751,2.751,0,0,1,67.083,95.373Zm0,0" fill="#bf360c"/>
        <path id="Path_41" data-name="Path 41" d="M70.581,97.127A3.112,3.112,0,0,1,67.664,94.5a51.141,51.141,0,0,1,1.755-21.282c2.336-7.292,6.118-13.421,11.086-17.5a40.41,40.41,0,0,1,11.37-6.426s7-2.917,7-8.157a2.917,2.917,0,0,1,5.833,0c0,9.035-9.616,13.125-10.789,13.706-3.5,1.458-7,2.917-9.912,5.537-4.09,3.5-7.292,8.75-9.331,14.88a45.249,45.249,0,0,0-1.458,18.958,2.894,2.894,0,0,1-2.632,3.2C70.877,97.127,70.581,97.127,70.581,97.127Zm0,0" fill="#bf360c"/>
        <path id="Path_42" data-name="Path 42" d="M69.7,100.625A2.874,2.874,0,0,1,66.787,98c-.285-4.375-.581-8.75-.866-13.421-.3-4.079-.593-7.873-2.051-11.086-2.324-4.66-4.956-8.169-7.292-9.627C48.125,58.037,43.75,52.8,43.75,40.833a2.917,2.917,0,0,1,5.833,0c0,8.75,2.336,12.829,10.5,18.377,4.079,2.917,7.576,8.75,9.035,11.951,2.039,4.09,2.336,8.169,2.632,13.125.285,4.375.581,9.046.866,13.421A2.92,2.92,0,0,1,69.7,100.625Zm0,0" fill="#bf360c"/>
        <path id="Path_43" data-name="Path 43" d="M61.25,65.921A2.757,2.757,0,0,1,58.333,63c0-6.13,3.5-9.627,6.414-12.544S70,45.5,70,40.833a2.917,2.917,0,1,1,5.833,0c0,7.292-3.794,11.086-7,14-2.632,2.62-4.671,4.375-4.671,8.169A2.757,2.757,0,0,1,61.25,65.921Zm0,0" fill="#bf360c"/>
        <path id="Path_44" data-name="Path 44" d="M67.083,14.583c-4.831,0-8.75,2.609-8.75,5.833s3.919,5.833,8.75,5.833,8.75-2.609,8.75-5.833S71.914,14.583,67.083,14.583Zm0,0" fill="#578233"/>
        <path id="Path_45" data-name="Path 45" d="M56.875,20.417c-5.64,0-10.208,1.96-10.208,4.375s4.569,4.375,10.208,4.375,10.208-1.96,10.208-4.375S62.515,20.417,56.875,20.417Zm0,0" fill="#578233"/>
        <path id="Path_46" data-name="Path 46" d="M56.875,26.25C35.125,26.25,17.5,30.169,17.5,35s17.625,8.75,39.375,8.75S96.25,39.831,96.25,35,78.625,26.25,56.875,26.25Zm0,0" fill="#578233"/>
        <path id="Path_47" data-name="Path 47" d="M75.833,20.417c-6.448,0-11.667,3.27-11.667,7.292S69.385,35,75.833,35,87.5,31.73,87.5,27.708,82.282,20.417,75.833,20.417ZM19.255,43.75c-9.023,0-16.338,3.27-16.338,7.292s7.314,7.292,16.338,7.292,16.326-3.27,16.326-7.292S28.267,43.75,19.255,43.75Zm0,0" fill="#578233"/>
        <path id="Path_48" data-name="Path 48" d="M8.75,52.5C3.919,52.5,0,54.46,0,56.875S3.919,61.25,8.75,61.25s8.75-1.96,8.75-4.375S13.581,52.5,8.75,52.5Zm99.167-20.417c-12.886,0-23.333,3.919-23.333,8.75s10.448,8.75,23.333,8.75,23.333-3.919,23.333-8.75S120.8,32.083,107.917,32.083Zm0,0" fill="#578233"/>
        <path id="Path_49" data-name="Path 49" d="M129.792,43.75c-5.64,0-10.208,1.96-10.208,4.375s4.569,4.375,10.208,4.375S140,50.54,140,48.125,135.431,43.75,129.792,43.75Zm0,0" fill="#578233"/>
      </g>
    </g>
    <g id="Mask_Group_8" data-name="Mask Group 8" transform="translate(2139.731 1121.19) rotate(180)" clip-path="url(#clip-path-8)">
      <g id="surface2758-3" data-name="surface2758" transform="translate(944.739 139)">
        <path id="Path_50" data-name="Path 50" d="M86.537,48a33.2,33.2,0,1,0,33.2,33.2A33.2,33.2,0,0,0,86.537,48Zm0,0" transform="translate(-29.895 -48)" fill="#bbdefb"/>
        <path id="Path_51" data-name="Path 51" d="M91.344,133.333a27.344,27.344,0,1,0,27.344,27.344A27.338,27.338,0,0,0,91.344,133.333Zm0,0" transform="translate(-32.749 -70.832)" fill="#bbdefb"/>
        <path id="Path_52" data-name="Path 52" d="M48.678,101.333a27.344,27.344,0,1,0,27.344,27.344A27.338,27.338,0,0,0,48.678,101.333Zm105.471,0a23.438,23.438,0,1,0,23.438,23.438A23.444,23.444,0,0,0,154.148,101.333Zm0,0" transform="translate(-21.333 -62.27)" fill="#bbdefb"/>
        <path id="Path_53" data-name="Path 53" d="M151.438,128a23.438,23.438,0,1,0,23.438,23.438A23.444,23.444,0,0,0,151.438,128Zm0,0" transform="translate(-49.873 -69.405)" fill="#bbdefb"/>
        <path id="Path_54" data-name="Path 54" d="M153.391,64a25.391,25.391,0,1,0,25.391,25.391A25.391,25.391,0,0,0,153.391,64Zm0,0" transform="translate(-49.873 -52.281)" fill="#bbdefb"/>
        <path id="Path_55" data-name="Path 55" d="M112.678,90.667a27.344,27.344,0,1,0,27.344,27.344A27.338,27.338,0,0,0,112.678,90.667Zm0,0" transform="translate(-38.457 -59.416)" fill="#bbdefb"/>
      </g>
    </g>
  </g>
</svg>
