<?xml version="1.0" encoding="UTF-8"?>
<svg xmlns="http://www.w3.org/2000/svg" xmlns:xlink="http://www.w3.org/1999/xlink" width="48pt" height="48pt" viewBox="0 0 48 48" version="1.1">
<g id="surface6668">
<path style=" stroke:none;fill-rule:nonzero;fill:rgb(34.117647%,50.980392%,20%);fill-opacity:1;" d="M 21 28 C 19.894531 28 19 28.449219 19 29 C 19 29.550781 19.894531 30 21 30 C 22.105469 30 23 29.550781 23 29 C 23 28.449219 22.105469 28 21 28 Z M 21 28 "/>
<path style=" stroke:none;fill-rule:nonzero;fill:rgb(34.117647%,50.980392%,20%);fill-opacity:1;" d="M 18.5 26 C 16.566406 26 15 26.671875 15 27.5 C 15 28.328125 16.566406 29 18.5 29 C 20.433594 29 22 28.328125 22 27.5 C 22 26.671875 20.433594 26 18.5 26 Z M 18.5 26 "/>
<path style=" stroke:none;fill-rule:nonzero;fill:rgb(34.117647%,50.980392%,20%);fill-opacity:1;" d="M 28 14 C 24.6875 14 22 14.894531 22 16 C 22 17.105469 24.6875 18 28 18 C 31.3125 18 34 17.105469 34 16 C 34 14.894531 31.3125 14 28 14 Z M 41.5 16 C 39.015625 16 37 16.671875 37 17.5 C 37 18.328125 39.015625 19 41.5 19 C 43.984375 19 46 18.328125 46 17.5 C 46 16.671875 43.984375 16 41.5 16 Z M 41.5 16 "/>
<path style=" stroke:none;fill-rule:nonzero;fill:rgb(34.117647%,50.980392%,20%);fill-opacity:1;" d="M 16.5 13 C 11.253906 13 7 14.34375 7 16 C 7 17.65625 11.253906 19 16.5 19 C 21.746094 19 26 17.65625 26 16 C 26 14.34375 21.746094 13 16.5 13 Z M 16.5 13 "/>
<path style=" stroke:none;fill-rule:nonzero;fill:rgb(34.117647%,50.980392%,20%);fill-opacity:1;" d="M 42 20 C 40.894531 20 40 20.449219 40 21 C 40 21.550781 40.894531 22 42 22 C 43.105469 22 44 21.550781 44 21 C 44 20.449219 43.105469 20 42 20 Z M 42 20 "/>
<path style=" stroke:none;fill-rule:nonzero;fill:rgb(74.901961%,21.176471%,4.705882%);fill-opacity:1;" d="M 26 41 L 26 30 L 22 30 L 22 41 C 22 42 20 43 20 43 L 28 43 C 28 43 26 42 26 41 Z M 26 41 "/>
<path style=" stroke:none;fill-rule:nonzero;fill:rgb(74.901961%,21.176471%,4.705882%);fill-opacity:1;" d="M 25.101562 33.898438 C 24.601562 33.898438 24.101562 33.5 24.101562 32.898438 C 24.101562 31.5 24.5 30.101562 25.398438 29.101562 C 25.699219 28.699219 26.101562 28.300781 26.398438 28 C 26.699219 27.699219 27.101562 27.398438 27.300781 27 C 27.5 26.601562 27.699219 26.199219 28 25.699219 C 28.199219 25.300781 28.398438 24.898438 28.601562 24.398438 C 29.199219 23.398438 30 22.601562 30.898438 22.101562 C 31.5 21.800781 32.101562 21.601562 32.699219 21.5 L 37.601562 20.101562 C 38.5 19.800781 39.5 19.601562 40.300781 19 C 40.800781 18.699219 41.199219 17.398438 41.199219 16.300781 C 41.199219 15.699219 41.601562 15.300781 42.199219 15.300781 C 42.800781 15.300781 43.199219 15.699219 43.199219 16.300781 C 43.199219 17.5 42.800781 19.699219 41.5 20.601562 C 40.398438 21.300781 39.300781 21.699219 38.199219 22 L 33.300781 23.398438 C 32.800781 23.5 32.300781 23.699219 31.898438 23.898438 C 31.300781 24.199219 30.800781 24.699219 30.398438 25.398438 C 30.199219 25.699219 30.101562 26.101562 29.898438 26.398438 C 29.699219 26.898438 29.398438 27.5 29.101562 28 C 28.699219 28.5 28.300781 28.898438 27.898438 29.300781 C 27.601562 29.601562 27.300781 29.898438 27.101562 30.199219 C 26.601562 30.898438 26.300781 31.898438 26.300781 32.800781 C 26.101562 33.5 25.601562 33.898438 25.101562 33.898438 Z M 23 32.699219 C 22.398438 32.699219 22 32.300781 22 31.699219 C 22 27.5 17.601562 24 14 24 C 8.300781 24 5 21.601562 5 17.5 C 5 16.898438 5.398438 16.5 6 16.5 C 6.601562 16.5 7 16.898438 7 17.5 C 7 21.199219 10.800781 22 14 22 C 18.5 22 24 26.300781 24 31.699219 C 24 32.300781 23.601562 32.699219 23 32.699219 Z M 23 32.699219 "/>
<path style=" stroke:none;fill-rule:nonzero;fill:rgb(74.901961%,21.176471%,4.705882%);fill-opacity:1;" d="M 24.199219 33.300781 C 23.699219 33.300781 23.300781 32.898438 23.199219 32.398438 C 22.898438 29.800781 23.101562 27.300781 23.800781 25.101562 C 24.601562 22.601562 25.898438 20.5 27.601562 19.101562 C 28.800781 18.101562 30.199219 17.398438 31.5 16.898438 C 31.5 16.898438 33.898438 15.898438 33.898438 14.101562 C 33.898438 13.5 34.300781 13.101562 34.898438 13.101562 C 35.5 13.101562 35.898438 13.5 35.898438 14.101562 C 35.898438 17.199219 32.601562 18.601562 32.199219 18.800781 C 31 19.300781 29.800781 19.800781 28.800781 20.699219 C 27.398438 21.898438 26.300781 23.699219 25.601562 25.800781 C 25 27.800781 24.800781 30 25.101562 32.300781 C 25.199219 32.800781 24.800781 33.300781 24.199219 33.398438 C 24.300781 33.300781 24.199219 33.300781 24.199219 33.300781 Z M 24.199219 33.300781 "/>
<path style=" stroke:none;fill-rule:nonzero;fill:rgb(74.901961%,21.176471%,4.705882%);fill-opacity:1;" d="M 23.898438 34.5 C 23.398438 34.5 22.898438 34.101562 22.898438 33.601562 C 22.800781 32.101562 22.699219 30.601562 22.601562 29 C 22.5 27.601562 22.398438 26.300781 21.898438 25.199219 C 21.101562 23.601562 20.199219 22.398438 19.398438 21.898438 C 16.5 19.898438 15 18.101562 15 14 C 15 13.398438 15.398438 13 16 13 C 16.601562 13 17 13.398438 17 14 C 17 17 17.800781 18.398438 20.601562 20.300781 C 22 21.300781 23.199219 23.300781 23.699219 24.398438 C 24.398438 25.800781 24.5 27.199219 24.601562 28.898438 C 24.699219 30.398438 24.800781 32 24.898438 33.5 C 24.898438 34 24.5 34.5 23.898438 34.5 Z M 23.898438 34.5 "/>
<path style=" stroke:none;fill-rule:nonzero;fill:rgb(74.901961%,21.176471%,4.705882%);fill-opacity:1;" d="M 21 22.601562 C 20.398438 22.601562 20 22.199219 20 21.601562 C 20 19.5 21.199219 18.300781 22.199219 17.300781 C 23.199219 16.300781 24 15.601562 24 14 C 24 13.398438 24.398438 13 25 13 C 25.601562 13 26 13.398438 26 14 C 26 16.5 24.699219 17.800781 23.601562 18.800781 C 22.699219 19.699219 22 20.300781 22 21.601562 C 22 22.199219 21.601562 22.601562 21 22.601562 Z M 21 22.601562 "/>
<path style=" stroke:none;fill-rule:nonzero;fill:rgb(34.117647%,50.980392%,20%);fill-opacity:1;" d="M 23 5 C 21.34375 5 20 5.894531 20 7 C 20 8.105469 21.34375 9 23 9 C 24.65625 9 26 8.105469 26 7 C 26 5.894531 24.65625 5 23 5 Z M 23 5 "/>
<path style=" stroke:none;fill-rule:nonzero;fill:rgb(34.117647%,50.980392%,20%);fill-opacity:1;" d="M 19.5 7 C 17.566406 7 16 7.671875 16 8.5 C 16 9.328125 17.566406 10 19.5 10 C 21.433594 10 23 9.328125 23 8.5 C 23 7.671875 21.433594 7 19.5 7 Z M 19.5 7 "/>
<path style=" stroke:none;fill-rule:nonzero;fill:rgb(34.117647%,50.980392%,20%);fill-opacity:1;" d="M 19.5 9 C 12.042969 9 6 10.34375 6 12 C 6 13.65625 12.042969 15 19.5 15 C 26.957031 15 33 13.65625 33 12 C 33 10.34375 26.957031 9 19.5 9 Z M 19.5 9 "/>
<path style=" stroke:none;fill-rule:nonzero;fill:rgb(34.117647%,50.980392%,20%);fill-opacity:1;" d="M 26 7 C 23.789062 7 22 8.121094 22 9.5 C 22 10.878906 23.789062 12 26 12 C 28.210938 12 30 10.878906 30 9.5 C 30 8.121094 28.210938 7 26 7 Z M 6.601562 15 C 3.507812 15 1 16.121094 1 17.5 C 1 18.878906 3.507812 20 6.601562 20 C 9.691406 20 12.199219 18.878906 12.199219 17.5 C 12.199219 16.121094 9.691406 15 6.601562 15 Z M 6.601562 15 "/>
<path style=" stroke:none;fill-rule:nonzero;fill:rgb(34.117647%,50.980392%,20%);fill-opacity:1;" d="M 3 18 C 1.34375 18 0 18.671875 0 19.5 C 0 20.328125 1.34375 21 3 21 C 4.65625 21 6 20.328125 6 19.5 C 6 18.671875 4.65625 18 3 18 Z M 37 11 C 32.582031 11 29 12.34375 29 14 C 29 15.65625 32.582031 17 37 17 C 41.417969 17 45 15.65625 45 14 C 45 12.34375 41.417969 11 37 11 Z M 37 11 "/>
<path style=" stroke:none;fill-rule:nonzero;fill:rgb(34.117647%,50.980392%,20%);fill-opacity:1;" d="M 44.5 15 C 42.566406 15 41 15.671875 41 16.5 C 41 17.328125 42.566406 18 44.5 18 C 46.433594 18 48 17.328125 48 16.5 C 48 15.671875 46.433594 15 44.5 15 Z M 44.5 15 "/>
</g>
</svg>
