<?xml version="1.0" encoding="UTF-8"?>
<svg xmlns="http://www.w3.org/2000/svg" xmlns:xlink="http://www.w3.org/1999/xlink" width="48pt" height="48pt" viewBox="0 0 48 48" version="1.1">
<g id="surface2758">
<path style=" stroke:none;fill-rule:nonzero;fill:rgb(73.333333%,87.058824%,98.431373%);fill-opacity:1;" d="M 18.5 9 C 13.804688 9 10 12.804688 10 17.5 C 10 22.195312 13.804688 26 18.5 26 C 23.195312 26 27 22.195312 27 17.5 C 27 12.804688 23.195312 9 18.5 9 Z M 18.5 9 "/>
<path style=" stroke:none;fill-rule:nonzero;fill:rgb(73.333333%,87.058824%,98.431373%);fill-opacity:1;" d="M 19 25 C 15.132812 25 12 28.132812 12 32 C 12 35.867188 15.132812 39 19 39 C 22.867188 39 26 35.867188 26 32 C 26 28.132812 22.867188 25 19 25 Z M 19 25 "/>
<path style=" stroke:none;fill-rule:nonzero;fill:rgb(73.333333%,87.058824%,98.431373%);fill-opacity:1;" d="M 11 19 C 7.132812 19 4 22.132812 4 26 C 4 29.867188 7.132812 33 11 33 C 14.867188 33 18 29.867188 18 26 C 18 22.132812 14.867188 19 11 19 Z M 38 19 C 34.6875 19 32 21.6875 32 25 C 32 28.3125 34.6875 31 38 31 C 41.3125 31 44 28.3125 44 25 C 44 21.6875 41.3125 19 38 19 Z M 38 19 "/>
<path style=" stroke:none;fill-rule:nonzero;fill:rgb(73.333333%,87.058824%,98.431373%);fill-opacity:1;" d="M 30 24 C 26.6875 24 24 26.6875 24 30 C 24 33.3125 26.6875 36 30 36 C 33.3125 36 36 33.3125 36 30 C 36 26.6875 33.3125 24 30 24 Z M 30 24 "/>
<path style=" stroke:none;fill-rule:nonzero;fill:rgb(73.333333%,87.058824%,98.431373%);fill-opacity:1;" d="M 30.5 12 C 26.910156 12 24 14.910156 24 18.5 C 24 22.089844 26.910156 25 30.5 25 C 34.089844 25 37 22.089844 37 18.5 C 37 14.910156 34.089844 12 30.5 12 Z M 30.5 12 "/>
<path style=" stroke:none;fill-rule:nonzero;fill:rgb(73.333333%,87.058824%,98.431373%);fill-opacity:1;" d="M 23 17 C 19.132812 17 16 20.132812 16 24 C 16 27.867188 19.132812 31 23 31 C 26.867188 31 30 27.867188 30 24 C 30 20.132812 26.867188 17 23 17 Z M 23 17 "/>
</g>
</svg>
