<?xml version="1.0" encoding="UTF-8"?>
<svg xmlns="http://www.w3.org/2000/svg" xmlns:xlink="http://www.w3.org/1999/xlink" width="48pt" height="48pt" viewBox="0 0 48 48" version="1.1">
<g id="surface4780">
<path style=" stroke:none;fill-rule:nonzero;fill:rgb(93.333333%,93.333333%,93.333333%);fill-opacity:1;" d="M 35.398438 26 L 7 26 L 7 13 L 48 13 L 48 13.398438 C 48 20.398438 42.398438 26 35.398438 26 Z M 35 32 L 13 32 C 10.800781 32 9 33.800781 9 36 L 9 37 L 39 37 L 39 36 C 39 33.800781 37.199219 32 35 32 Z M 35 32 "/>
<path style=" stroke:none;fill-rule:nonzero;fill:rgb(47.058824%,56.470588%,61.176471%);fill-opacity:1;" d="M 7 23 L 5.699219 23 C 2.601562 23 0 20.398438 0 17.300781 L 0 16 L 7 16 Z M 16 26 L 32 26 L 32 32 L 16 32 Z M 16 26 "/>
</g>
</svg>
