<?xml version="1.0" encoding="UTF-8"?>
<svg xmlns="http://www.w3.org/2000/svg" xmlns:xlink="http://www.w3.org/1999/xlink" width="48pt" height="48pt" viewBox="0 0 48 48" version="1.1">
<g id="surface4316">
<path style=" stroke:none;fill-rule:nonzero;fill:rgb(8.235294%,39.607843%,75.294118%);fill-opacity:1;" d="M 24 4 C 12.953125 4 4 12.953125 4 24 C 4 35.046875 12.953125 44 24 44 C 35.046875 44 44 35.046875 44 24 C 44 12.953125 35.046875 4 24 4 Z M 24 4 "/>
<path style=" stroke:none;fill-rule:nonzero;fill:rgb(48.627451%,72.941176%,15.294118%);fill-opacity:1;" d="M 32.300781 14.5 L 30.300781 16 C 30 16.300781 29.898438 16.699219 30 17.101562 L 30.898438 18.199219 C 31 18.601562 30.800781 19.101562 30.398438 19.300781 C 29.898438 19.601562 28.699219 20.199219 28.699219 20.5 C 28.699219 21.199219 29.199219 22.898438 29.601562 22.898438 C 32.699219 22.898438 30.800781 21.5 33 20.101562 C 34.300781 19.300781 36.398438 18.898438 36.898438 18.898438 L 38.898438 18.898438 L 38.898438 32.898438 L 31.898438 32.898438 C 31.898438 32.898438 33.101562 34.800781 34.199219 36.898438 C 34.699219 37.898438 35.898438 39.898438 35.898438 39.898438 C 41 36 43.898438 30.101562 43.898438 23.898438 C 43.898438 17.5 40.800781 11.699219 36.101562 8.101562 L 33.199219 13.199219 C 33 13.800781 32.699219 14.199219 32.300781 14.5 Z M 14.101562 25 C 15 25 15 24.199219 15 23 C 15 21.800781 14.800781 20 18 20 C 19.300781 20 21 20 21 18 C 21 17.199219 21 14 21 13 C 21 12.699219 20.898438 11.398438 18.898438 11.398438 C 17.199219 11.398438 15.898438 11.101562 15.898438 9.898438 C 15.898438 9 16.601562 6.898438 18 5 C 10.601562 7.300781 5.199219 13.699219 4.199219 21.5 L 4 23 C 6.199219 23 11.800781 23 12 23 C 13.5 23 13.199219 25 14.101562 25 Z M 23 31 C 21.800781 31 21 31 19.601562 29.300781 C 19 28.699219 18.101562 28 17.398438 28 C 16.699219 28 15.800781 28 15.800781 28 L 15 28 L 14 29 L 16 36 L 16 42.300781 C 17 42.699219 18 43.101562 19 43.398438 C 19.398438 40.300781 21.800781 36.601562 22 36 C 22.199219 35.601562 23 33.699219 23 33.699219 Z M 23 31 "/>
<path style=" stroke:none;fill-rule:nonzero;fill:rgb(48.627451%,72.941176%,15.294118%);fill-opacity:1;" d="M 37 19 C 37 19 38 20 38 23 C 38 24 36 25 33 25 C 28 25 28 27.898438 28 29 C 28 32.601562 32 33 32 33 C 32 33 36 33 39 37 L 39.101562 37.101562 C 42.101562 33.601562 44 29 44 24 C 44 20.601562 43.101562 17.300781 41.601562 14.5 L 41.300781 14 L 41 14 C 38 14 38.300781 18 37 19 Z M 6 24 C 6.601562 25.199219 8.101562 26.300781 9.300781 27.199219 C 10.101562 27.800781 13 29 13 31 C 13 34.398438 15 38 15 40 L 15 41.800781 L 17 42.699219 C 17 42.699219 17 41.398438 17 41 C 17 38 20.398438 36 22 36 C 22 36 24 35.800781 24 32.5 C 24 32.101562 23.601562 31 23 31 C 23 31 22.5 33 18.699219 33 C 16.699219 33 14.898438 31.898438 14.898438 28 L 13 28 C 12.398438 28 11.898438 27.199219 11.898438 26.699219 C 11.898438 26.199219 11.800781 26 11 26 C 10.398438 26 10 25.699219 10 25.199219 C 10 24.800781 10 24.300781 10 24.199219 C 10 23.601562 10.5 22.898438 12 22.898438 C 12 21.101562 10 19.898438 10 18.398438 C 10 17 9 14.898438 7 13.898438 L 6.699219 13.800781 C 6.699219 13.800781 4.601562 17.398438 4.199219 21.300781 Z M 6 24 "/>
<path style=" stroke:none;fill-rule:nonzero;fill:rgb(73.333333%,87.058824%,98.431373%);fill-opacity:1;" d="M 24 45 C 12.398438 45 3 35.601562 3 24 C 3 12.398438 12.398438 3 24 3 C 35.601562 3 45 12.398438 45 24 C 45 35.601562 35.601562 45 24 45 Z M 24 6 C 14.101562 6 6 14.101562 6 24 C 6 33.898438 14.101562 42 24 42 C 33.898438 42 42 33.898438 42 24 C 42 14.101562 33.898438 6 24 6 Z M 24 6 "/>
</g>
</svg>
