<?xml version="1.0" encoding="UTF-8"?>
<svg xmlns="http://www.w3.org/2000/svg" xmlns:xlink="http://www.w3.org/1999/xlink" width="48pt" height="48pt" viewBox="0 0 48 48" version="1.1">
<g id="surface1805">
<path style=" stroke:none;fill-rule:nonzero;fill:rgb(100%,100%,100%);fill-opacity:1;" d="M 42.535156 23.789062 C 44.144531 27.375 41.167969 30.921875 39.769531 30.949219 L 36.285156 30.949219 L 31.050781 21.660156 L 38.769531 17.195312 L 42.472656 23.605469 Z M 24.097656 8.277344 L 22.152344 6.015625 L 20.058594 6.015625 C 18.371094 5.988281 16.3125 6.585938 15.097656 8.320312 L 15.003906 8.472656 L 11.300781 14.882812 L 19.019531 19.351562 L 24.617188 10.199219 Z M 15.402344 39.902344 C 11.484375 39.507812 9.769531 35.496094 10.4375 34.25 L 12.015625 31 L 23.578125 31 L 23 39.933594 L 15.585938 39.933594 Z M 15.402344 39.902344 "/>
<path style=" stroke:none;fill-rule:nonzero;fill:rgb(100%,100%,100%);fill-opacity:1;" d="M 39.46875 30.894531 C 40.53125 30.863281 41.253906 30.230469 42.15625 28.925781 L 36.273438 38.824219 C 35.851562 39.765625 35.273438 39.921875 34.664062 39.859375 L 29.46875 39.859375 L 29.4375 43.019531 L 25.0625 35.421875 L 29.46875 27.738281 L 29.46875 30.894531 Z M 22.664062 7.195312 C 21.847656 5.886719 20.671875 6.015625 20.300781 6.015625 L 31.113281 6.015625 C 32.144531 5.917969 32.570312 6.316406 32.84375 6.894531 L 35.425781 11.390625 L 38.15625 9.8125 L 33.78125 17.4375 L 24.945312 17.46875 L 27.648438 15.890625 Z M 10.660156 33.78125 C 10.148438 34.695312 10.296875 35.566406 10.925781 36.828125 L 5.375 27.039062 C 4.796875 26.183594 4.949219 25.640625 5.28125 25.121094 L 7.894531 20.628906 L 5.164062 19.015625 L 13.945312 19.015625 L 18.410156 26.671875 L 15.675781 25.097656 Z M 10.660156 33.78125 "/>
</g>
</svg>
