<?xml version="1.0" encoding="UTF-8"?>
<svg xmlns="http://www.w3.org/2000/svg" xmlns:xlink="http://www.w3.org/1999/xlink" width="48pt" height="48pt" viewBox="0 0 48 48" version="1.1">
<g id="surface3689">
<path style=" stroke:none;fill-rule:nonzero;fill:rgb(34.117647%,50.980392%,20%);fill-opacity:1;" d="M 30.601562 44 L 17.398438 44 C 15.398438 44 13.699219 42.601562 13.398438 40.601562 L 9 11 L 39 11 L 34.5 40.601562 C 34.199219 42.601562 32.5 44 30.601562 44 Z M 30.601562 44 "/>
<path style=" stroke:none;fill-rule:nonzero;fill:rgb(100%,92.941176%,0.392157%);fill-opacity:1;" d="M 28 6 L 20 6 L 14 12 L 34 12 Z M 28 6 "/>
<path style=" stroke:none;fill-rule:nonzero;fill:rgb(47.058824%,56.470588%,61.176471%);fill-opacity:1;" d="M 10 8 L 38 8 C 39.101562 8 40 8.898438 40 10 L 40 12 L 8 12 L 8 10 C 8 8.898438 8.898438 8 10 8 Z M 10 8 "/>
</g>
</svg>
