<?xml version="1.0" encoding="UTF-8"?>
<svg xmlns="http://www.w3.org/2000/svg" xmlns:xlink="http://www.w3.org/1999/xlink" width="48pt" height="48pt" viewBox="0 0 48 48" version="1.1">
<g id="surface505">
<path style=" stroke:none;fill-rule:nonzero;fill:rgb(48.627451%,72.941176%,15.294118%);fill-opacity:1;" d="M 43 36 L 29 36 L 29 14 L 39.558594 14 C 40.417969 14 41.183594 14.550781 41.453125 15.367188 L 45 26 L 45 34 C 45 35.105469 44.105469 36 43 36 Z M 43 36 "/>
<path style=" stroke:none;fill-rule:nonzero;fill:rgb(34.117647%,50.980392%,20%);fill-opacity:1;" d="M 29 36 L 5 36 C 3.894531 36 3 35.105469 3 34 L 3 25 L 12.316406 8.660156 C 12.824219 7.640625 13.863281 7 15 7 L 27 7 C 28.105469 7 29 7.894531 29 9 Z M 29 36 "/>
<path style=" stroke:none;fill-rule:nonzero;fill:rgb(20%,20%,20%);fill-opacity:1;" d="M 41 25 L 34 25 C 33.449219 25 33 24.550781 33 24 L 33 17 C 33 16.449219 33.449219 16 34 16 L 39.277344 16 C 39.710938 16 40.09375 16.273438 40.226562 16.683594 L 41.949219 21.847656 C 41.984375 21.949219 42 22.054688 42 22.160156 L 42 24 C 42 24.550781 41.550781 25 41 25 Z M 41 25 "/>
<path style=" stroke:none;fill-rule:nonzero;fill:rgb(48.627451%,72.941176%,15.294118%);fill-opacity:1;" d="M 21 6 L 25 6 L 25 29 L 21 29 Z M 13 6 L 17 6 L 17 29 L 13 29 Z M 13 6 "/>
<path style=" stroke:none;fill-rule:nonzero;fill:rgb(47.058824%,56.470588%,61.176471%);fill-opacity:1;" d="M 7 36 L 29 36 L 29 29 L 12 29 Z M 7 36 "/>
<path style=" stroke:none;fill-rule:nonzero;fill:rgb(20%,20%,20%);fill-opacity:1;" d="M 37 31 C 34.238281 31 32 33.238281 32 36 C 32 38.761719 34.238281 41 37 41 C 39.761719 41 42 38.761719 42 36 C 42 33.238281 39.761719 31 37 31 Z M 13 31 C 10.238281 31 8 33.238281 8 36 C 8 38.761719 10.238281 41 13 41 C 15.761719 41 18 38.761719 18 36 C 18 33.238281 15.761719 31 13 31 Z M 13 31 "/>
<path style=" stroke:none;fill-rule:nonzero;fill:rgb(47.058824%,56.470588%,61.176471%);fill-opacity:1;" d="M 37 34 C 35.894531 34 35 34.894531 35 36 C 35 37.105469 35.894531 38 37 38 C 38.105469 38 39 37.105469 39 36 C 39 34.894531 38.105469 34 37 34 Z M 13 34 C 11.894531 34 11 34.894531 11 36 C 11 37.105469 11.894531 38 13 38 C 14.105469 38 15 37.105469 15 36 C 15 34.894531 14.105469 34 13 34 Z M 13 34 "/>
</g>
</svg>
