<?xml version="1.0" encoding="UTF-8"?>
<svg xmlns="http://www.w3.org/2000/svg" xmlns:xlink="http://www.w3.org/1999/xlink" width="48pt" height="48pt" viewBox="0 0 48 48" version="1.1">
<g id="surface5582">
<path style=" stroke:none;fill-rule:nonzero;fill:rgb(92.54902%,94.117647%,94.509804%);fill-opacity:1;" d="M 5.699219 33.300781 L 7.699219 36.699219 L 26 28.5 L 22 21.5 Z M 5.699219 33.300781 "/>
<path style=" stroke:none;fill-rule:nonzero;fill:rgb(92.54902%,94.117647%,94.509804%);fill-opacity:1;" d="M 40.300781 36.699219 L 42.300781 33.300781 L 26 21.5 L 22 28.5 Z M 18 41 C 16.898438 41 16 41.898438 16 43 L 16 45 L 32 45 L 32 43 C 32 41.898438 31.101562 41 30 41 Z M 18 41 "/>
<path style=" stroke:none;fill-rule:nonzero;fill:rgb(92.54902%,94.117647%,94.509804%);fill-opacity:1;" d="M 26 5 L 22 5 L 20 25 L 28 25 Z M 26 5 "/>
<path style=" stroke:none;fill-rule:nonzero;fill:rgb(92.54902%,94.117647%,94.509804%);fill-opacity:1;" d="M 24 5 L 22 5 L 20.199219 22.800781 L 24 25 Z M 6.699219 35 L 7.699219 36.699219 L 24 29.398438 L 24 25 Z M 41.300781 35 L 42.300781 33.300781 L 27.800781 22.800781 L 24 25 Z M 41.300781 35 "/>
<path style=" stroke:none;fill-rule:nonzero;fill:rgb(47.058824%,56.470588%,61.176471%);fill-opacity:1;" d="M 24 23 C 22.894531 23 22 23.894531 22 25 C 22 26.105469 22.894531 27 24 27 C 25.105469 27 26 26.105469 26 25 C 26 23.894531 25.105469 23 24 23 Z M 24 29.398438 L 22 30.300781 L 22 41 L 26 41 L 26 30.300781 Z M 24 29.398438 "/>
</g>
</svg>
